<svg xmlns="http://www.w3.org/2000/svg" viewBox="0 0 1280 628" width="1280" height="628"><defs><filter id="brush" x="0" y="0" width="100%" height="100%"><feTurbulence type="fractalNoise" baseFrequency="0.0008 1.1" numOctaves="4" seed="7"/><feColorMatrix type="matrix" values="1.9 0 0 0 -0.45  1.9 0 0 0 -0.45  1.9 0 0 0 -0.45  0 0 0 0 1"/></filter><filter id="fine" x="0" y="0" width="100%" height="100%"><feTurbulence type="fractalNoise" baseFrequency="0.9" numOctaves="2" seed="3"/><feColorMatrix type="matrix" values="1.6 0 0 0 -0.3  1.6 0 0 0 -0.3  1.6 0 0 0 -0.3  0 0 0 0 1"/></filter><filter id="grainv" x="0" y="0" width="100%" height="100%"><feTurbulence type="fractalNoise" baseFrequency="0.02 0.6" numOctaves="4" seed="11"/><feColorMatrix type="matrix" values="1.5 0 0 0 -0.25  1.2 0 0 0 -0.25  0.8 0 0 0 -0.25  0 0 0 0 1"/></filter><linearGradient id="lit" x1="0" y1="0" x2="1" y2="1"><stop offset="0" stop-color="#fff" stop-opacity="0.22"/><stop offset="0.45" stop-color="#fff" stop-opacity="0"/><stop offset="1" stop-color="#000" stop-opacity="0.18"/></linearGradient><radialGradient id="vig" cx="0.5" cy="0.45" r="0.8"><stop offset="0.6" stop-color="#000" stop-opacity="0"/><stop offset="1" stop-color="#000" stop-opacity="0.35"/></radialGradient><radialGradient id="screw" cx="0.35" cy="0.3" r="0.8"><stop offset="0" stop-color="#e2e4e8"/><stop offset="1" stop-color="#6a6d74"/></radialGradient><linearGradient id="woodh" x1="0" y1="0" x2="0" y2="1"><stop offset="0" stop-color="#7a5232"/><stop offset="1" stop-color="#4a2f1b"/></linearGradient><linearGradient id="wood" x1="0" y1="0" x2="1" y2="0"><stop offset="0" stop-color="#5a3a22"/><stop offset="0.5" stop-color="#7a5232"/><stop offset="1" stop-color="#4a2f1b"/></linearGradient><filter id="woodg" x="0" y="0" width="100%" height="100%"><feTurbulence type="fractalNoise" baseFrequency="0.02 0.4" numOctaves="3" seed="5"/><feColorMatrix type="matrix" values="0.9 0 0 0 0.1  0.6 0 0 0 0.02  0.4 0 0 0 0  0 0 0 0 1"/></filter></defs><linearGradient id="b9" x1="0" y1="0" x2="0" y2="1"><stop offset="0" stop-color="#ece8dc"/><stop offset="1" stop-color="#dcd8ca"/></linearGradient><rect x="0" y="0" width="1280" height="628" fill="url(#b9)"/><rect x="0" y="0" width="1280" height="628" filter="url(#fine)" style="mix-blend-mode:overlay" opacity="0.28"/><rect x="0" y="0" width="1280" height="628" fill="url(#lit)" opacity="0.5"/><rect x="0" y="0" width="1280" height="628" fill="url(#vig)" opacity="0.6"/><linearGradient id="silv" x1="0" y1="0" x2="1" y2="0"><stop offset="0" stop-color="#8f9096"/><stop offset="0.45" stop-color="#e9eaec"/><stop offset="1" stop-color="#a3a4aa"/></linearGradient><rect x="0" y="0" width="8" height="628" fill="url(#silv)"/><rect x="1272" y="0" width="8" height="628" fill="url(#silv)"/><rect x="8" y="0" width="1" height="628" fill="#000" opacity="0.35"/><rect x="1271" y="0" width="1" height="628" fill="#000" opacity="0.35"/><rect x="10" y="50" width="310" height="572" fill="#000" fill-opacity="0.06" stroke="#7d7a72" stroke-width="1"/><rect x="10" y="50" width="310" height="30" fill="#4b5566"/><rect x="326" y="50" width="310" height="572" fill="#000" fill-opacity="0.06" stroke="#7d7a72" stroke-width="1"/><rect x="326" y="50" width="310" height="30" fill="#4b5566"/><rect x="642" y="50" width="310" height="572" fill="#000" fill-opacity="0.06" stroke="#7d7a72" stroke-width="1"/><rect x="642" y="50" width="310" height="30" fill="#4b5566"/><rect x="958" y="50" width="310" height="572" fill="#000" fill-opacity="0.06" stroke="#7d7a72" stroke-width="1"/><rect x="958" y="50" width="310" height="30" fill="#4b5566"/></svg>
