<svg xmlns="http://www.w3.org/2000/svg" viewBox="0 0 130 100" width="130" height="100"><defs><linearGradient id="g" x1="0" y1="0" x2="0" y2="1"><stop offset="0" stop-color="#fff"/><stop offset="1" stop-color="#fff" stop-opacity="0"/></linearGradient></defs><rect x="2" y="2" width="126" height="96" rx="10" fill="#0b0b0c"/><rect x="6" y="5" width="118" height="88" rx="8" fill="#3c3a35"/><rect x="6" y="5" width="118" height="44" rx="8" fill="url(#g)" opacity="0.12"/><g fill="#8f8b80" stroke="#8f8b80" stroke-width="143.36" stroke-linejoin="round" opacity="1"><path transform="translate(42.92 64.04) scale(0.01270 -0.01270)" d="M1102 2511V0H840V2290L197 1585L20 1757L713 2511Z"/><path transform="translate(58.53 64.04) scale(0.01270 -0.01270)" d="M8 1290Q8 1324 4.0 1400.0Q0 1476 0 1516Q0 1733 28.5 1912.0Q57 2091 150.0 2238.5Q243 2386 418 2462Q578 2523 897 2523H1073Q1393 2523 1576.0 2497.5Q1759 2472 1881.0 2386.5Q2003 2301 2065.5 2121.0Q2128 1941 2138 1630V754Q2130 515 2053.0 351.0Q1976 187 1819.5 96.0Q1663 5 1425 -8Q1327 -12 1135 -12H930Q728 -12 576.0 14.5Q424 41 305.5 111.0Q187 181 113.0 311.5Q39 442 20 647Q8 795 8 1106ZM295 1270V795Q302 546 391.0 401.5Q480 257 713 246Q805 244 975.0 234.5Q1145 225 1253 225Q1471 225 1598.5 268.5Q1726 312 1790.5 443.5Q1855 575 1855 831V1679Q1855 1935 1800.0 2063.5Q1745 2192 1610.5 2239.0Q1476 2286 1212 2286H938Q719 2286 592.5 2258.5Q466 2231 387.5 2123.0Q309 2015 303 1790Q295 1622 295 1270Z"/></g></svg>
